<svg width="651" height="49" viewBox="0 0 651 49" fill="none" xmlns="http://www.w3.org/2000/svg">
<path d="M0.560059 2.67199H7.52006V31.28H24.1281V38H0.560059V2.67199Z" fill="#0E0E0E"/>
<path d="M40.5261 38.576C37.9661 38.576 35.7901 38.096 33.9981 37.136C32.2381 36.176 30.8941 34.848 29.9661 33.152C29.0381 31.456 28.5741 29.504 28.5741 27.296C28.5741 25.184 29.1181 23.28 30.2061 21.584C31.2941 19.888 32.7501 18.544 34.5741 17.552C36.3981 16.528 38.4301 16.016 40.6701 16.016C43.6781 16.016 46.1421 16.896 48.0621 18.656C50.0141 20.384 51.2781 22.896 51.8541 26.192L35.5341 31.376L34.0461 27.728L45.8541 23.744L44.4621 24.368C44.2061 23.536 43.7421 22.816 43.0701 22.208C42.4301 21.568 41.4541 21.248 40.1421 21.248C39.1501 21.248 38.2701 21.488 37.5021 21.968C36.7661 22.416 36.1901 23.072 35.7741 23.936C35.3901 24.768 35.1981 25.76 35.1981 26.912C35.1981 28.224 35.4381 29.328 35.9181 30.224C36.3981 31.088 37.0541 31.744 37.8861 32.192C38.7181 32.64 39.6461 32.864 40.6701 32.864C41.4061 32.864 42.1101 32.736 42.7821 32.48C43.4861 32.224 44.1741 31.888 44.8461 31.472L47.8221 36.464C46.7021 37.104 45.4861 37.616 44.1741 38C42.8941 38.384 41.6781 38.576 40.5261 38.576Z" fill="#0E0E0E"/>
<path d="M55.1053 27.248C55.1053 25.104 55.6013 23.184 56.5933 21.488C57.6173 19.792 59.0413 18.464 60.8653 17.504C62.6893 16.512 64.7853 16.016 67.1533 16.016C69.5533 16.016 71.6333 16.512 73.3933 17.504C75.1533 18.464 76.4973 19.792 77.4253 21.488C78.3853 23.184 78.8653 25.104 78.8653 27.248C78.8653 29.392 78.3853 31.328 77.4253 33.056C76.4973 34.752 75.1533 36.096 73.3933 37.088C71.6333 38.08 69.5213 38.576 67.0573 38.576C64.7533 38.576 62.6893 38.128 60.8653 37.232C59.0733 36.336 57.6653 35.04 56.6413 33.344C55.6173 31.648 55.1053 29.616 55.1053 27.248ZM61.8733 27.296C61.8733 28.384 62.0973 29.376 62.5453 30.272C62.9933 31.136 63.6013 31.824 64.3693 32.336C65.1373 32.848 66.0013 33.104 66.9613 33.104C68.0173 33.104 68.9293 32.848 69.6973 32.336C70.4653 31.824 71.0573 31.136 71.4733 30.272C71.8893 29.376 72.0973 28.384 72.0973 27.296C72.0973 26.176 71.8893 25.184 71.4733 24.32C71.0573 23.456 70.4653 22.768 69.6973 22.256C68.9293 21.744 68.0173 21.488 66.9613 21.488C66.0013 21.488 65.1373 21.744 64.3693 22.256C63.6013 22.768 62.9933 23.456 62.5453 24.32C62.0973 25.184 61.8733 26.176 61.8733 27.296Z" fill="#0E0E0E"/>
<path d="M90.2552 17.024L90.7832 20.768L90.6872 20.432C91.4232 19.12 92.4632 18.064 93.8072 17.264C95.1512 16.432 96.7992 16.016 98.7512 16.016C100.735 16.016 102.383 16.608 103.695 17.792C105.039 18.944 105.727 20.448 105.759 22.304V38H99.0392V24.8C99.0072 23.872 98.7512 23.136 98.2712 22.592C97.8232 22.016 97.0552 21.728 95.9672 21.728C94.9432 21.728 94.0472 22.064 93.2792 22.736C92.5112 23.408 91.9192 24.32 91.5032 25.472C91.0872 26.624 90.8792 27.952 90.8792 29.456V38H84.1592V17.024H90.2552Z" fill="#0E0E0E"/>
<path d="M121.491 38.576C119.539 38.576 117.763 38.192 116.163 37.424C114.595 36.624 113.347 35.408 112.419 33.776C111.491 32.144 111.027 30.064 111.027 27.536C111.027 25.168 111.507 23.12 112.467 21.392C113.427 19.664 114.691 18.336 116.259 17.408C117.827 16.448 119.491 15.968 121.251 15.968C123.331 15.968 124.899 16.32 125.955 17.024C127.043 17.696 127.939 18.448 128.643 19.28L128.355 20.096L128.979 17.024H135.219V38H128.499V33.44L129.027 34.88C128.963 34.88 128.771 35.072 128.451 35.456C128.131 35.808 127.651 36.24 127.011 36.752C126.403 37.232 125.635 37.648 124.707 38C123.811 38.384 122.739 38.576 121.491 38.576ZM123.411 33.104C124.211 33.104 124.931 32.992 125.571 32.768C126.211 32.512 126.771 32.16 127.251 31.712C127.731 31.232 128.147 30.64 128.499 29.936V24.8C128.243 24.096 127.859 23.504 127.347 23.024C126.835 22.512 126.227 22.128 125.523 21.872C124.819 21.584 124.035 21.44 123.171 21.44C122.211 21.44 121.315 21.696 120.483 22.208C119.683 22.688 119.043 23.36 118.563 24.224C118.083 25.088 117.843 26.08 117.843 27.2C117.843 28.32 118.099 29.328 118.611 30.224C119.123 31.12 119.795 31.824 120.627 32.336C121.491 32.848 122.419 33.104 123.411 33.104Z" fill="#0E0E0E"/>
<path d="M148.192 17.024L148.816 22.784L148.672 21.92C149.28 20.672 150.112 19.616 151.168 18.752C152.224 17.856 153.264 17.168 154.288 16.688C155.344 16.208 156.144 15.968 156.688 15.968L156.352 22.688C154.784 22.496 153.44 22.752 152.32 23.456C151.2 24.16 150.336 25.088 149.728 26.24C149.12 27.392 148.816 28.576 148.816 29.792V38H142.144V17.024H148.192Z" fill="#0E0E0E"/>
<path d="M169.438 38.576C167.486 38.576 165.742 38.128 164.206 37.232C162.67 36.304 161.454 34.976 160.558 33.248C159.694 31.52 159.262 29.472 159.262 27.104C159.262 24.736 159.742 22.72 160.702 21.056C161.662 19.392 162.974 18.128 164.638 17.264C166.302 16.4 168.19 15.968 170.302 15.968C171.646 15.968 172.926 16.176 174.142 16.592C175.39 17.008 176.43 17.648 177.262 18.512V20.624V0.127991H183.934V38H177.214V33.92L177.742 35.36C176.654 36.256 175.438 37.024 174.094 37.664C172.75 38.272 171.198 38.576 169.438 38.576ZM171.646 32.912C172.542 32.912 173.326 32.8 173.998 32.576C174.702 32.32 175.31 31.968 175.822 31.52C176.366 31.04 176.83 30.448 177.214 29.744V24.608C176.958 23.904 176.558 23.312 176.014 22.832C175.502 22.32 174.862 21.936 174.094 21.68C173.358 21.392 172.542 21.248 171.646 21.248C170.654 21.248 169.726 21.504 168.862 22.016C168.03 22.496 167.358 23.168 166.846 24.032C166.334 24.896 166.078 25.888 166.078 27.008C166.078 28.128 166.334 29.136 166.846 30.032C167.358 30.928 168.03 31.632 168.862 32.144C169.726 32.656 170.654 32.912 171.646 32.912Z" fill="#0E0E0E"/>
<path d="M189.215 27.248C189.215 25.104 189.711 23.184 190.703 21.488C191.727 19.792 193.151 18.464 194.975 17.504C196.799 16.512 198.895 16.016 201.263 16.016C203.663 16.016 205.743 16.512 207.503 17.504C209.263 18.464 210.607 19.792 211.535 21.488C212.495 23.184 212.975 25.104 212.975 27.248C212.975 29.392 212.495 31.328 211.535 33.056C210.607 34.752 209.263 36.096 207.503 37.088C205.743 38.08 203.631 38.576 201.167 38.576C198.863 38.576 196.799 38.128 194.975 37.232C193.183 36.336 191.775 35.04 190.751 33.344C189.727 31.648 189.215 29.616 189.215 27.248ZM195.983 27.296C195.983 28.384 196.207 29.376 196.655 30.272C197.103 31.136 197.711 31.824 198.479 32.336C199.247 32.848 200.111 33.104 201.071 33.104C202.127 33.104 203.039 32.848 203.807 32.336C204.575 31.824 205.167 31.136 205.583 30.272C205.999 29.376 206.207 28.384 206.207 27.296C206.207 26.176 205.999 25.184 205.583 24.32C205.167 23.456 204.575 22.768 203.807 22.256C203.039 21.744 202.127 21.488 201.071 21.488C200.111 21.488 199.247 21.744 198.479 22.256C197.711 22.768 197.103 23.456 196.655 24.32C196.207 25.184 195.983 26.176 195.983 27.296Z" fill="#0E0E0E"/>
<path d="M261.478 35.072C261.094 35.392 260.374 35.824 259.318 36.368C258.294 36.912 257.03 37.392 255.526 37.808C254.022 38.224 252.358 38.416 250.534 38.384C247.75 38.32 245.254 37.824 243.046 36.896C240.87 35.936 239.014 34.64 237.478 33.008C235.974 31.376 234.822 29.504 234.022 27.392C233.222 25.28 232.822 23.024 232.822 20.624C232.822 17.936 233.222 15.472 234.022 13.232C234.854 10.992 236.022 9.05599 237.526 7.42399C239.062 5.79199 240.886 4.52799 242.998 3.63199C245.11 2.73599 247.446 2.28799 250.006 2.28799C252.374 2.28799 254.47 2.60799 256.294 3.24799C258.118 3.88799 259.606 4.57599 260.758 5.31199L258.022 11.888C257.222 11.28 256.15 10.656 254.806 10.016C253.494 9.34399 251.974 9.00799 250.246 9.00799C248.902 9.00799 247.606 9.29599 246.358 9.87199C245.142 10.416 244.054 11.2 243.094 12.224C242.166 13.248 241.43 14.448 240.886 15.824C240.342 17.168 240.07 18.64 240.07 20.24C240.07 21.936 240.31 23.488 240.79 24.896C241.302 26.304 242.022 27.52 242.95 28.544C243.878 29.536 244.982 30.304 246.262 30.848C247.574 31.392 249.046 31.664 250.678 31.664C252.566 31.664 254.182 31.36 255.526 30.752C256.87 30.144 257.894 29.504 258.598 28.832L261.478 35.072Z" fill="#0E0E0E"/>
<path d="M267.347 38V0.127991H273.923V21.248L273.875 20.432C274.611 19.12 275.651 18.064 276.995 17.264C278.339 16.432 279.987 16.016 281.939 16.016C283.923 16.016 285.571 16.608 286.883 17.792C288.227 18.944 288.915 20.448 288.947 22.304V38H282.227V24.8C282.195 23.872 281.939 23.136 281.459 22.592C281.011 22.016 280.243 21.728 279.155 21.728C278.131 21.728 277.235 22.064 276.467 22.736C275.699 23.408 275.107 24.32 274.691 25.472C274.275 26.624 274.067 27.952 274.067 29.456V38H267.347Z" fill="#0E0E0E"/>
<path d="M295.847 17.024H302.567V38H295.847V17.024ZM295.703 9.58399C295.703 8.59199 296.087 7.77599 296.855 7.13599C297.655 6.49599 298.503 6.17599 299.399 6.17599C300.295 6.17599 301.111 6.49599 301.847 7.13599C302.615 7.77599 302.999 8.59199 302.999 9.58399C302.999 10.576 302.615 11.392 301.847 12.032C301.111 12.64 300.295 12.944 299.399 12.944C298.503 12.944 297.655 12.64 296.855 12.032C296.087 11.392 295.703 10.576 295.703 9.58399Z" fill="#0E0E0E"/>
<path d="M318.031 38.576C316.079 38.576 314.335 38.128 312.799 37.232C311.263 36.304 310.047 34.976 309.151 33.248C308.287 31.52 307.855 29.472 307.855 27.104C307.855 24.736 308.335 22.72 309.295 21.056C310.255 19.392 311.567 18.128 313.231 17.264C314.895 16.4 316.783 15.968 318.895 15.968C320.239 15.968 321.519 16.176 322.735 16.592C323.983 17.008 325.023 17.648 325.855 18.512V20.624V0.127991H332.527V38H325.807V33.92L326.335 35.36C325.247 36.256 324.031 37.024 322.687 37.664C321.343 38.272 319.791 38.576 318.031 38.576ZM320.239 32.912C321.135 32.912 321.919 32.8 322.591 32.576C323.295 32.32 323.903 31.968 324.415 31.52C324.959 31.04 325.423 30.448 325.807 29.744V24.608C325.551 23.904 325.151 23.312 324.607 22.832C324.095 22.32 323.455 21.936 322.687 21.68C321.951 21.392 321.135 21.248 320.239 21.248C319.247 21.248 318.319 21.504 317.455 22.016C316.623 22.496 315.951 23.168 315.439 24.032C314.927 24.896 314.671 25.888 314.671 27.008C314.671 28.128 314.927 29.136 315.439 30.032C315.951 30.928 316.623 31.632 317.455 32.144C318.319 32.656 319.247 32.912 320.239 32.912Z" fill="#0E0E0E"/>
<path d="M339.44 17.024H346.16V38H339.44V17.024ZM339.296 9.58399C339.296 8.59199 339.68 7.77599 340.448 7.13599C341.248 6.49599 342.096 6.17599 342.992 6.17599C343.888 6.17599 344.704 6.49599 345.44 7.13599C346.208 7.77599 346.592 8.59199 346.592 9.58399C346.592 10.576 346.208 11.392 345.44 12.032C344.704 12.64 343.888 12.944 342.992 12.944C342.096 12.944 341.248 12.64 340.448 12.032C339.68 11.392 339.296 10.576 339.296 9.58399Z" fill="#0E0E0E"/>
<path d="M361.433 38.576C359.641 38.576 357.977 38.144 356.441 37.28C354.937 36.416 353.721 35.168 352.793 33.536C351.897 31.872 351.449 29.856 351.449 27.488C351.449 25.088 351.961 23.04 352.985 21.344C354.009 19.616 355.337 18.288 356.969 17.36C358.633 16.432 360.425 15.968 362.345 15.968C364.137 15.968 365.625 16.272 366.809 16.88C367.993 17.456 369.033 18.224 369.929 19.184L369.401 20.624V16.544H376.121V48.08H369.449V33.92L369.545 36.08C368.713 36.784 367.593 37.376 366.185 37.856C364.809 38.336 363.225 38.576 361.433 38.576ZM363.833 33.296C364.729 33.296 365.545 33.168 366.281 32.912C367.049 32.624 367.689 32.224 368.201 31.712C368.745 31.2 369.145 30.608 369.401 29.936V24.8C369.017 24.096 368.553 23.52 368.009 23.072C367.497 22.592 366.889 22.24 366.185 22.016C365.513 21.76 364.729 21.632 363.833 21.632C362.841 21.632 361.913 21.888 361.049 22.4C360.217 22.912 359.545 23.616 359.033 24.512C358.521 25.408 358.265 26.416 358.265 27.536C358.265 28.656 358.521 29.648 359.033 30.512C359.545 31.376 360.217 32.064 361.049 32.576C361.913 33.056 362.841 33.296 363.833 33.296Z" fill="#0E0E0E"/>
<path d="M389.802 39.008C387.914 39.008 386.33 38.432 385.05 37.28C383.77 36.096 383.098 34.576 383.034 32.72V17.024H389.754V30.224C389.818 31.152 390.058 31.904 390.474 32.48C390.89 33.024 391.594 33.296 392.586 33.296C393.578 33.296 394.426 32.96 395.13 32.288C395.866 31.616 396.426 30.704 396.81 29.552C397.226 28.368 397.434 27.04 397.434 25.568V17.024H404.154V38H398.058L397.53 34.16L397.626 34.592C397.146 35.456 396.538 36.224 395.802 36.896C395.066 37.568 394.186 38.08 393.162 38.432C392.17 38.816 391.05 39.008 389.802 39.008Z" fill="#0E0E0E"/>
<path d="M411.065 17.024H417.785V38H411.065V17.024ZM410.921 9.58399C410.921 8.59199 411.305 7.77599 412.073 7.13599C412.873 6.49599 413.721 6.17599 414.617 6.17599C415.513 6.17599 416.329 6.49599 417.065 7.13599C417.833 7.77599 418.217 8.59199 418.217 9.58399C418.217 10.576 417.833 11.392 417.065 12.032C416.329 12.64 415.513 12.944 414.617 12.944C413.721 12.944 412.873 12.64 412.073 12.032C411.305 11.392 410.921 10.576 410.921 9.58399Z" fill="#0E0E0E"/>
<path d="M430.802 17.024L431.33 20.72L431.234 20.432C432.066 19.024 433.106 17.936 434.354 17.168C435.602 16.368 437.106 15.968 438.866 15.968C440.018 15.968 441.026 16.128 441.89 16.448C442.786 16.768 443.538 17.248 444.146 17.888C444.754 18.496 445.17 19.296 445.394 20.288L445.154 20.336C446.05 19.024 447.122 17.968 448.37 17.168C449.65 16.368 450.978 15.968 452.354 15.968C454.434 15.968 456.082 16.56 457.298 17.744C458.546 18.896 459.186 20.4 459.218 22.256V38H452.546V25.04C452.514 24.112 452.37 23.36 452.114 22.784C451.858 22.176 451.266 21.84 450.338 21.776C449.25 21.776 448.322 22.16 447.554 22.928C446.818 23.664 446.258 24.624 445.874 25.808C445.522 26.96 445.346 28.16 445.346 29.408V38H438.626V25.04C438.594 24.112 438.418 23.36 438.098 22.784C437.81 22.176 437.202 21.84 436.274 21.776C435.218 21.776 434.322 22.16 433.586 22.928C432.882 23.664 432.338 24.608 431.954 25.76C431.602 26.912 431.426 28.096 431.426 29.312V38H424.706V17.024H430.802Z" fill="#0E0E0E"/>
<path d="M464.512 27.248C464.512 25.104 465.008 23.184 466 21.488C467.024 19.792 468.448 18.464 470.272 17.504C472.096 16.512 474.192 16.016 476.56 16.016C478.96 16.016 481.04 16.512 482.8 17.504C484.56 18.464 485.904 19.792 486.832 21.488C487.792 23.184 488.272 25.104 488.272 27.248C488.272 29.392 487.792 31.328 486.832 33.056C485.904 34.752 484.56 36.096 482.8 37.088C481.04 38.08 478.928 38.576 476.464 38.576C474.16 38.576 472.096 38.128 470.272 37.232C468.48 36.336 467.072 35.04 466.048 33.344C465.024 31.648 464.512 29.616 464.512 27.248ZM471.28 27.296C471.28 28.384 471.504 29.376 471.952 30.272C472.4 31.136 473.008 31.824 473.776 32.336C474.544 32.848 475.408 33.104 476.368 33.104C477.424 33.104 478.336 32.848 479.104 32.336C479.872 31.824 480.464 31.136 480.88 30.272C481.296 29.376 481.504 28.384 481.504 27.296C481.504 26.176 481.296 25.184 480.88 24.32C480.464 23.456 479.872 22.768 479.104 22.256C478.336 21.744 477.424 21.488 476.368 21.488C475.408 21.488 474.544 21.744 473.776 22.256C473.008 22.768 472.4 23.456 471.952 24.32C471.504 25.184 471.28 26.176 471.28 27.296Z" fill="#0E0E0E"/>
<path d="M510.279 2.67199H532.359V9.39199H517.239V17.408H530.343V24.128H517.239V38H510.279V2.67199Z" fill="#0E0E0E"/>
<path d="M544.866 38.576C542.914 38.576 541.138 38.192 539.538 37.424C537.97 36.624 536.722 35.408 535.794 33.776C534.866 32.144 534.402 30.064 534.402 27.536C534.402 25.168 534.882 23.12 535.842 21.392C536.802 19.664 538.066 18.336 539.634 17.408C541.202 16.448 542.866 15.968 544.626 15.968C546.706 15.968 548.274 16.32 549.33 17.024C550.418 17.696 551.314 18.448 552.018 19.28L551.73 20.096L552.354 17.024H558.594V38H551.874V33.44L552.402 34.88C552.338 34.88 552.146 35.072 551.826 35.456C551.506 35.808 551.026 36.24 550.386 36.752C549.778 37.232 549.01 37.648 548.082 38C547.186 38.384 546.114 38.576 544.866 38.576ZM546.786 33.104C547.586 33.104 548.306 32.992 548.946 32.768C549.586 32.512 550.146 32.16 550.626 31.712C551.106 31.232 551.522 30.64 551.874 29.936V24.8C551.618 24.096 551.234 23.504 550.722 23.024C550.21 22.512 549.602 22.128 548.898 21.872C548.194 21.584 547.41 21.44 546.546 21.44C545.586 21.44 544.69 21.696 543.858 22.208C543.058 22.688 542.418 23.36 541.938 24.224C541.458 25.088 541.218 26.08 541.218 27.2C541.218 28.32 541.474 29.328 541.986 30.224C542.498 31.12 543.17 31.824 544.002 32.336C544.866 32.848 545.794 33.104 546.786 33.104Z" fill="#0E0E0E"/>
<path d="M565.519 0.127991H572.239V38H565.519V0.127991Z" fill="#0E0E0E"/>
<path d="M589.479 38.576C586.919 38.576 584.743 38.096 582.951 37.136C581.191 36.176 579.847 34.848 578.919 33.152C577.991 31.456 577.527 29.504 577.527 27.296C577.527 25.184 578.071 23.28 579.159 21.584C580.247 19.888 581.703 18.544 583.527 17.552C585.351 16.528 587.383 16.016 589.623 16.016C592.631 16.016 595.095 16.896 597.015 18.656C598.967 20.384 600.231 22.896 600.807 26.192L584.487 31.376L582.999 27.728L594.807 23.744L593.415 24.368C593.159 23.536 592.695 22.816 592.023 22.208C591.383 21.568 590.407 21.248 589.095 21.248C588.103 21.248 587.223 21.488 586.455 21.968C585.719 22.416 585.143 23.072 584.727 23.936C584.343 24.768 584.151 25.76 584.151 26.912C584.151 28.224 584.391 29.328 584.871 30.224C585.351 31.088 586.007 31.744 586.839 32.192C587.671 32.64 588.599 32.864 589.623 32.864C590.359 32.864 591.063 32.736 591.735 32.48C592.439 32.224 593.127 31.888 593.799 31.472L596.775 36.464C595.655 37.104 594.439 37.616 593.127 38C591.847 38.384 590.631 38.576 589.479 38.576Z" fill="#0E0E0E"/>
<path d="M623.498 36.128C622.57 36.864 621.402 37.456 619.994 37.904C618.618 38.352 617.258 38.576 615.914 38.576C613.514 38.576 611.418 38.144 609.626 37.28C607.866 36.384 606.49 35.12 605.498 33.488C604.538 31.824 604.058 29.824 604.058 27.488C604.058 25.152 604.586 23.168 605.642 21.536C606.698 19.872 608.074 18.608 609.77 17.744C611.498 16.88 613.306 16.448 615.194 16.448C617.082 16.448 618.714 16.704 620.09 17.216C621.498 17.728 622.698 18.4 623.69 19.232L620.426 23.552C619.978 23.2 619.354 22.848 618.554 22.496C617.786 22.112 616.874 21.92 615.818 21.92C614.89 21.92 614.042 22.16 613.274 22.64C612.506 23.12 611.898 23.776 611.45 24.608C611.002 25.44 610.778 26.4 610.778 27.488C610.778 28.512 611.018 29.456 611.498 30.32C611.978 31.184 612.634 31.872 613.466 32.384C614.33 32.864 615.338 33.104 616.49 33.104C617.226 33.104 617.898 33.008 618.506 32.816C619.146 32.592 619.69 32.288 620.138 31.904L623.498 36.128Z" fill="#0E0E0E"/>
<path d="M627.027 27.248C627.027 25.104 627.523 23.184 628.515 21.488C629.539 19.792 630.963 18.464 632.787 17.504C634.611 16.512 636.707 16.016 639.075 16.016C641.475 16.016 643.555 16.512 645.315 17.504C647.075 18.464 648.419 19.792 649.347 21.488C650.307 23.184 650.787 25.104 650.787 27.248C650.787 29.392 650.307 31.328 649.347 33.056C648.419 34.752 647.075 36.096 645.315 37.088C643.555 38.08 641.443 38.576 638.979 38.576C636.675 38.576 634.611 38.128 632.787 37.232C630.995 36.336 629.587 35.04 628.563 33.344C627.539 31.648 627.027 29.616 627.027 27.248ZM633.795 27.296C633.795 28.384 634.019 29.376 634.467 30.272C634.915 31.136 635.523 31.824 636.291 32.336C637.059 32.848 637.923 33.104 638.883 33.104C639.939 33.104 640.851 32.848 641.619 32.336C642.387 31.824 642.979 31.136 643.395 30.272C643.811 29.376 644.019 28.384 644.019 27.296C644.019 26.176 643.811 25.184 643.395 24.32C642.979 23.456 642.387 22.768 641.619 22.256C640.851 21.744 639.939 21.488 638.883 21.488C637.923 21.488 637.059 21.744 636.291 22.256C635.523 22.768 634.915 23.456 634.467 24.32C634.019 25.184 633.795 26.176 633.795 27.296Z" fill="#0E0E0E"/>
</svg>
